<svg width="61" height="68" viewBox="0 0 61 68" fill="none" xmlns="http://www.w3.org/2000/svg">
<path d="M41.9609 52.7144V53.3003C42.0391 53.8472 42.1953 54.4331 42.4297 55.0581C42.4297 55.1362 42.3906 55.2144 42.3125 55.2925C41.7656 55.605 41.2969 55.9565 40.9062 56.3472L40.4375 56.8159C40.3594 56.8159 40.2812 56.8159 40.2031 56.8159C40.125 56.8159 40.0859 56.7769 40.0859 56.6987V56.1128C40.0078 55.4878 39.8516 54.9019 39.6172 54.355C39.6172 54.1987 39.6562 54.0815 39.7344 54.0034C40.2812 53.6909 40.75 53.3394 41.1406 52.9487L41.6094 52.5972C41.6875 52.519 41.7656 52.4995 41.8438 52.5386C41.9219 52.5776 41.9609 52.6362 41.9609 52.7144ZM8.21094 41.23C8.05469 39.5894 8.52344 38.1831 9.61719 37.0112C10.5547 35.9956 11.7266 35.4097 13.1328 35.2534C13.1328 35.2534 13.1328 35.2144 13.1328 35.1362C13.1328 33.6519 13.6797 32.3628 14.7734 31.269C15.8672 30.1753 17.1562 29.6284 18.6406 29.6284C20.2031 29.6284 21.5117 30.1558 22.5664 31.2104C23.6211 32.2651 24.1875 33.5737 24.2656 35.1362C24.2656 35.1362 24.2656 35.1753 24.2656 35.2534C25.5938 35.4097 26.7266 35.9956 27.6641 37.0112C28.8359 38.1831 29.3438 39.5894 29.1875 41.23C29.1094 42.6362 28.5625 43.8276 27.5469 44.8042C26.5312 45.7808 25.3203 46.3081 23.9141 46.3862C23.2109 46.3862 22.5469 46.269 21.9219 46.0347C21.9219 46.894 22.0391 47.5972 22.2734 48.144C22.5078 48.6128 22.4883 49.0229 22.2148 49.3745C21.9414 49.7261 21.5703 49.9019 21.1016 49.9019H16.2969C15.8281 49.9019 15.457 49.7261 15.1836 49.3745C14.9102 49.0229 14.8516 48.6128 15.0078 48.144C15.2422 47.5972 15.3984 46.894 15.4766 46.0347C14.8516 46.269 14.1875 46.3862 13.4844 46.3862C12.0781 46.3081 10.8672 45.7808 9.85156 44.8042C8.83594 43.8276 8.28906 42.6362 8.21094 41.23ZM13.7188 37.0112C12.625 37.0112 11.707 37.4019 10.9648 38.1831C10.2227 38.9644 9.89062 39.9409 9.96875 41.1128C9.96875 41.7378 10.1445 42.3042 10.4961 42.812C10.8477 43.3198 11.2969 43.73 11.8438 44.0425C12.3906 44.355 12.9766 44.5503 13.6016 44.6284C14.3047 44.6284 15.0078 44.4331 15.7109 44.0425C16.0234 43.8081 16.3555 43.7886 16.707 43.9839C17.0586 44.1792 17.2344 44.4722 17.2344 44.8628C17.3125 46.1128 17.1953 47.2065 16.8828 48.144H20.5156C20.2031 47.2065 20.0859 46.1128 20.1641 44.8628C20.1641 44.4722 20.3398 44.1792 20.6914 43.9839C21.043 43.7886 21.375 43.8081 21.6875 44.0425C22.3125 44.4331 23.0156 44.6284 23.7969 44.6284C24.7344 44.5503 25.5547 44.1792 26.2578 43.5151C26.9609 42.8511 27.3516 42.0503 27.4297 41.1128C27.5078 39.9409 27.1758 38.9644 26.4336 38.1831C25.6914 37.4019 24.7734 37.0112 23.6797 37.0112C23.6016 37.0112 23.5234 37.0112 23.4453 37.0112C23.1328 37.0112 22.8789 36.894 22.6836 36.6597C22.4883 36.4253 22.3906 36.1519 22.3906 35.8394C22.4688 35.605 22.5078 35.3706 22.5078 35.1362C22.5078 34.7456 22.4297 34.355 22.2734 33.9644C22.1172 33.5737 21.9219 33.2222 21.6875 32.9097C21.4531 32.5972 21.1797 32.3237 20.8672 32.0894C20.5547 31.855 20.2227 31.6792 19.8711 31.562C19.5195 31.4448 19.1094 31.3862 18.6406 31.3862C17.625 31.3862 16.7461 31.7573 16.0039 32.4995C15.2617 33.2417 14.8906 34.1206 14.8906 35.1362C14.8906 35.3706 14.9297 35.605 15.0078 35.8394C15.0078 36.1519 14.9102 36.4253 14.7148 36.6597C14.5195 36.894 14.2266 37.0112 13.8359 37.0112C13.8359 37.0112 13.7969 37.0112 13.7188 37.0112ZM57.3125 14.5112C58.4062 14.9019 59.207 15.6245 59.7148 16.6792C60.2227 17.7339 60.2812 18.8081 59.8906 19.9019L57.8984 25.2925C57.7422 25.6831 57.4688 25.8784 57.0781 25.8784C57 25.8784 56.9219 25.8784 56.8438 25.8784C56.2969 25.644 56.1016 25.2534 56.2578 24.7065L58.25 19.3159C58.4844 18.6909 58.4453 18.0659 58.1328 17.4409C57.8203 16.8159 57.3516 16.3862 56.7266 16.1519L29.7734 6.30811C29.1484 6.07373 28.5234 6.11279 27.8984 6.42529C27.2734 6.73779 26.8438 7.20654 26.6094 7.83154L24.0312 15.0972H25.6719L26.2578 13.5737C26.4922 13.0269 26.8828 12.8511 27.4297 13.0464C27.9766 13.2417 28.1328 13.6128 27.8984 14.1597L27.5469 15.0972H33.0547C33.8359 15.0972 34.5391 15.2925 35.1641 15.6831C35.7891 16.0737 36.2969 16.6011 36.6875 17.2651C37.0781 17.9292 37.2734 18.6128 37.2734 19.3159V23.5347C37.7422 23.144 38.2891 23.0269 38.9141 23.1831C39.6172 23.4956 40.0078 24.0034 40.0859 24.7065L40.3203 26.9331C40.5547 29.355 41.1016 31.6987 41.9609 33.9644C42.2734 34.8237 42 35.5269 41.1406 36.0737C39.8125 36.855 38.5234 37.7534 37.2734 38.769V54.2378C37.6641 54.4722 37.7812 54.8237 37.625 55.2925C37.5469 55.4487 37.4297 55.605 37.2734 55.7612V57.7534L41.1406 59.1597C41.7656 59.394 42.3906 59.3745 43.0156 59.1011C43.6406 58.8276 44.0703 58.3784 44.3047 57.7534L54.8516 28.6909C55.0859 28.144 55.4766 27.9683 56.0234 28.1636C56.5703 28.3589 56.7266 28.73 56.4922 29.2769L45.9453 58.3394C45.5547 59.4331 44.8125 60.2144 43.7188 60.6831C43.1719 60.9956 42.5859 61.1519 41.9609 61.1519C41.4922 61.1519 41.0234 61.0737 40.5547 60.9175L37.2734 59.6284V60.2144C37.2734 60.7612 37.1562 61.3081 36.9219 61.855C36.6875 62.4019 36.375 62.8511 35.9844 63.2026C35.5938 63.5542 35.1445 63.8472 34.6367 64.0815C34.1289 64.3159 33.6016 64.4331 33.0547 64.4331H4.34375C3.17188 64.4331 2.17578 64.0229 1.35547 63.2026C0.535156 62.3823 0.125 61.3862 0.125 60.2144V57.0503C0.125 56.5034 0.417969 56.23 1.00391 56.23C1.58984 56.23 1.88281 56.5034 1.88281 57.0503V60.2144C1.88281 60.9175 2.11719 61.5034 2.58594 61.9722C3.05469 62.4409 3.64062 62.6753 4.34375 62.6753H33.0547C33.7578 62.6753 34.3438 62.4409 34.8125 61.9722C35.2812 61.5034 35.5156 60.9175 35.5156 60.2144V19.3159C35.5156 18.6909 35.2812 18.1245 34.8125 17.6167C34.3438 17.1089 33.7578 16.855 33.0547 16.855H4.34375C3.64062 16.855 3.05469 17.1089 2.58594 17.6167C2.11719 18.1245 1.88281 18.6909 1.88281 19.3159V53.0659C1.88281 53.6909 1.58984 54.0034 1.00391 54.0034C0.417969 54.0034 0.125 53.6909 0.125 53.0659V19.3159C0.125 18.144 0.535156 17.1479 1.35547 16.3276C2.17578 15.5073 3.17188 15.0972 4.34375 15.0972H22.1562L24.9688 7.24561C25.3594 6.15186 26.082 5.35107 27.1367 4.84326C28.1914 4.33545 29.2656 4.27686 30.3594 4.66748L57.3125 14.5112ZM37.2734 25.9956V36.5425C38.2109 35.7612 39.2266 35.0972 40.3203 34.5503C39.4609 32.1284 38.875 29.6675 38.5625 27.1675L38.3281 24.9409L37.2734 25.9956ZM30.8281 8.88623L30.9453 9.47217C30.9453 10.0972 31.0625 10.6831 31.2969 11.23C31.375 11.3862 31.3359 11.4644 31.1797 11.4644C30.7109 11.7769 30.2422 12.1675 29.7734 12.6362L29.3047 12.9878C29.3047 13.0659 29.2656 13.0854 29.1875 13.0464C29.1094 13.0073 29.0312 12.9487 28.9531 12.8706V12.2847C28.875 11.6597 28.7188 11.0737 28.4844 10.5269C28.4844 10.4487 28.5234 10.3706 28.6016 10.2925C29.1484 9.97998 29.6562 9.58936 30.125 9.12061L30.4766 8.76904C30.5547 8.69092 30.6328 8.67139 30.7109 8.71045C30.7891 8.74951 30.8281 8.80811 30.8281 8.88623ZM43.0156 51.4253L54.0312 20.8394C54.2656 20.3706 54.2656 19.9019 54.0312 19.4331C53.7969 18.9644 53.4453 18.6128 52.9766 18.3784L33.7578 11.4644C33.2109 11.23 33.0547 10.8394 33.2891 10.2925C33.5234 9.74561 33.9141 9.58936 34.4609 9.82373L53.5625 16.7378C54.5 17.1284 55.1836 17.7729 55.6133 18.6714C56.043 19.5698 56.1016 20.4878 55.7891 21.4253L44.6562 52.0112C44.5 52.4019 44.2266 52.5972 43.8359 52.5972C43.7578 52.5972 43.6797 52.5581 43.6016 52.48C42.9766 52.3237 42.7812 51.9722 43.0156 51.4253ZM33.875 54.7065C33.875 55.2534 33.582 55.5269 32.9961 55.5269C32.4102 55.5269 32.1172 55.2534 32.1172 54.7065V22.1284C32.1172 21.6597 31.9414 21.23 31.5898 20.8394C31.2383 20.4487 30.7891 20.2534 30.2422 20.2534H9.85156C9.30469 20.2534 9.03125 19.9604 9.03125 19.3745C9.03125 18.7886 9.30469 18.4956 9.85156 18.4956H30.2422C31.2578 18.4956 32.1172 18.8667 32.8203 19.6089C33.5234 20.3511 33.875 21.1909 33.875 22.1284V54.7065ZM32.3516 59.2769C32.3516 59.355 32.3516 59.4331 32.3516 59.5112C32.3516 60.1362 32.0195 60.4487 31.3555 60.4487C30.6914 60.4487 30.3594 60.1362 30.3594 59.5112C30.3594 59.4331 30.3594 59.355 30.3594 59.2769H30.2422C29.5391 59.2769 29.1875 58.8862 29.1875 58.105C29.2656 57.5581 29.6172 57.2456 30.2422 57.1675C30.4766 57.1675 30.6719 57.2456 30.8281 57.4019V57.2847C30.8281 56.9722 30.7891 56.7378 30.7109 56.5815C30.7109 56.5034 30.75 56.4644 30.8281 56.4644H31.8828C31.9609 56.4644 32 56.5034 32 56.5815C31.9219 56.7378 31.8828 56.9722 31.8828 57.2847V57.4019C32.1172 57.2456 32.3125 57.1675 32.4688 57.1675C33.0938 57.2456 33.4453 57.5581 33.5234 58.105C33.5234 58.8862 33.1719 59.2769 32.4688 59.2769H32.3516ZM3.52344 24.9409C3.52344 24.3159 3.81641 24.0034 4.40234 24.0034C4.98828 24.0034 5.28125 24.3159 5.28125 24.9409V57.4019C5.28125 57.9487 5.45703 58.3979 5.80859 58.7495C6.16016 59.1011 6.60938 59.2769 7.15625 59.2769H27.5469C28.0938 59.2769 28.3672 59.5698 28.3672 60.1558C28.3672 60.7417 28.0938 61.0347 27.5469 61.0347H7.15625C6.14062 61.0347 5.28125 60.6831 4.57812 59.98C3.875 59.2769 3.52344 58.4175 3.52344 57.4019V24.9409ZM4.92969 20.3706L5.04688 20.2534C5.04688 20.1753 5.04688 20.1362 5.04688 20.1362C5.04688 19.4331 5.37891 19.0815 6.04297 19.0815C6.70703 19.0815 7.03906 19.4331 7.03906 20.1362C7.03906 20.1362 7.03906 20.1753 7.03906 20.2534V20.3706C7.03906 20.2925 7.07812 20.2534 7.15625 20.2534C7.85938 20.2534 8.17188 20.644 8.09375 21.4253C8.09375 22.0503 7.78125 22.3628 7.15625 22.3628C6.92188 22.3628 6.72656 22.3237 6.57031 22.2456C6.49219 22.5581 6.53125 22.8315 6.6875 23.0659C6.6875 23.144 6.64844 23.1831 6.57031 23.1831H5.51562C5.4375 23.1831 5.39844 23.144 5.39844 23.0659C5.47656 22.8315 5.51562 22.5581 5.51562 22.2456C5.28125 22.3237 5.08594 22.3628 4.92969 22.3628C4.30469 22.3628 3.95312 22.0503 3.875 21.4253C3.875 20.644 4.22656 20.2534 4.92969 20.2534V20.3706Z" fill="black"/>
</svg>
