<svg width="61" height="68" viewBox="0 0 61 68" fill="none" xmlns="http://www.w3.org/2000/svg">
<path d="M60.2734 25.2925C60.8203 25.8394 60.8203 26.3472 60.2734 26.8159C60.1172 27.0503 59.8828 27.1675 59.5703 27.1675C59.2578 27.1675 58.9844 27.0503 58.75 26.8159C51.0156 19.0815 41.6406 15.2144 30.625 15.2144C19.6094 15.2144 10.2344 19.1206 2.49999 26.9331C1.95312 27.4019 1.42577 27.3823 0.917962 26.8745C0.410149 26.3667 0.429681 25.8394 0.976556 25.2925C4.88281 21.3862 9.39452 18.3784 14.5117 16.269C19.6289 14.1597 25 13.105 30.625 13.105C34.375 13.105 38.0078 13.5737 41.5234 14.5112C45.0391 15.4487 48.3984 16.8354 51.6016 18.6714C54.8047 20.5073 57.6953 22.7144 60.2734 25.2925ZM7.42187 31.7378C13.8281 25.3315 21.5625 22.1284 30.625 22.1284C39.6875 22.1284 47.4219 25.3315 53.8281 31.7378C54.375 32.2847 54.3945 32.812 53.8867 33.3198C53.3789 33.8276 52.8516 33.8081 52.3047 33.2612C46.3672 27.3237 39.1406 24.355 30.625 24.355C22.1094 24.355 14.8828 27.3237 8.94531 33.2612C8.71093 33.4956 8.43749 33.6128 8.12499 33.6128C7.81249 33.6128 7.57812 33.4956 7.42187 33.2612C6.87499 32.7925 6.87499 32.2847 7.42187 31.7378ZM13.75 38.1831C18.4375 33.5737 24.0625 31.269 30.625 31.269C37.1875 31.269 42.8125 33.5737 47.5 38.1831C47.9687 38.73 47.9687 39.2378 47.5 39.7065C47.2656 39.9409 46.9922 40.0581 46.6797 40.0581C46.3672 40.0581 46.0937 39.9409 45.8594 39.7065C41.6406 35.4878 36.5625 33.3784 30.625 33.3784C24.6875 33.3784 19.6094 35.4878 15.3906 39.7065C14.8437 40.2534 14.3164 40.2729 13.8086 39.7651C13.3008 39.2573 13.2812 38.73 13.75 38.1831ZM25.5859 43.5737C25.5859 43.5737 25.9375 43.2222 26.6406 42.519C27.3437 41.8159 28.6719 41.4644 30.625 41.4644C32.5781 41.4644 34.2578 42.1675 35.6641 43.5737C37.0703 44.98 37.7734 46.6792 37.7734 48.6714C37.7734 50.6636 37.0703 52.3433 35.6641 53.7104C34.2578 55.0776 32.5781 55.7612 30.625 55.7612C28.6719 55.7612 26.9922 55.0776 25.5859 53.7104C24.1797 52.3433 23.4766 50.6636 23.4766 48.6714C23.4766 46.6792 24.1797 44.98 25.5859 43.5737ZM27.1094 52.187C27.1094 52.187 27.3437 52.4312 27.8125 52.9194C28.2812 53.4077 29.2187 53.6519 30.625 53.6519C32.0312 53.6519 33.2031 53.1636 34.1406 52.187C35.0781 51.2104 35.5469 50.0386 35.5469 48.6714C35.5469 47.3042 35.0781 46.1323 34.1406 45.1558C33.2031 44.1792 32.0312 43.6909 30.625 43.6909C29.2187 43.6909 28.0469 44.1792 27.1094 45.1558C26.1719 46.1323 25.7031 47.3042 25.7031 48.6714C25.7031 50.0386 26.1719 51.2104 27.1094 52.187Z" fill="black"/>
</svg>
