<svg width="61" height="68" viewBox="0 0 61 68" fill="none" xmlns="http://www.w3.org/2000/svg">
<path d="M55.0859 28.4565C56.4922 28.4565 57.6836 28.9448 58.6602 29.9213C59.6367 30.8979 60.125 32.0502 60.125 33.3784C60.125 35.8784 59.2461 38.0073 57.4883 39.7651C55.7305 41.5229 53.6016 42.4018 51.1016 42.4018H39.1484C37.1953 42.4018 35.3984 41.8159 33.7578 40.644C29.6172 41.894 25.3984 42.4799 21.1016 42.4018C15.2422 42.4018 10.2812 41.5424 6.21875 39.8237C2.15625 38.1049 0.125 35.9565 0.125 33.3784C0.125 31.6596 1.16016 30.0776 3.23047 28.6323C5.30078 27.187 8.05469 26.1127 11.4922 25.4096C9.22656 24.7846 7.42969 23.9448 6.10156 22.8901C4.77344 21.8354 4.10938 20.683 4.10938 19.433C4.10938 18.4955 4.46094 17.6166 5.16406 16.7963C5.86719 15.976 6.86328 15.2729 8.15234 14.687C9.44141 14.101 10.9453 13.6127 12.6641 13.2221C10.3203 12.2846 9.14844 11.0346 9.14844 9.47211C9.14844 7.90961 10.2617 6.67914 12.4883 5.7807C14.7148 4.88226 17.2734 4.43304 20.1641 4.43304C23.0547 4.43304 25.6133 4.88226 27.8398 5.7807C30.0664 6.67914 31.1797 7.90961 31.1797 9.47211C31.1797 11.0346 29.9688 12.2846 27.5469 13.2221C30.2031 13.769 32.293 14.5893 33.8164 15.683C35.3398 16.7768 36.1016 18.0268 36.1016 19.433C36.1016 21.933 33.9141 23.8471 29.5391 25.1752C32.8203 25.644 35.8672 26.7377 38.6797 28.4565H44.0703V26.3471C42.9766 26.1127 42.0391 25.5268 41.2578 24.5893C40.4766 23.6518 40.0859 22.5971 40.0859 21.4252V21.0737C40.0859 19.6674 40.5938 18.4955 41.6094 17.558L45.125 14.0424L48.6406 17.558C49.6562 18.4955 50.1641 19.6674 50.1641 21.0737V21.4252C50.1641 22.2065 49.9883 22.9487 49.6367 23.6518C49.2852 24.3549 48.7969 24.9409 48.1719 25.4096C47.5469 25.8784 46.8828 26.1909 46.1797 26.3471V28.4565H55.0859ZM42.0781 21.4252C42.0781 22.2846 42.3711 23.0073 42.957 23.5932C43.543 24.1791 44.2656 24.4721 45.125 24.4721C45.9844 24.4721 46.707 24.1791 47.293 23.5932C47.8789 23.0073 48.1719 22.2846 48.1719 21.4252V21.0737C48.1719 20.2924 47.8594 19.5893 47.2344 18.9643L45.125 16.8549L43.0156 18.9643C42.3906 19.5893 42.0781 20.2924 42.0781 21.0737V21.4252ZM13.7188 7.42133C13.7188 7.42133 13.2891 7.58734 12.4297 7.91937C11.5703 8.2514 11.1406 8.74945 11.1406 9.41351C11.1406 10.0776 12 10.7416 13.7188 11.4057C15.4375 12.0698 17.5664 12.4018 20.1055 12.4018C22.6445 12.4018 24.7734 12.0698 26.4922 11.4057C28.2109 10.7416 29.0703 10.0776 29.0703 9.41351C29.0703 8.74945 28.2109 8.08539 26.4922 7.42133C24.7734 6.75726 22.6445 6.42523 20.1055 6.42523C17.5664 6.42523 15.4375 6.75726 13.7188 7.42133ZM10.1445 15.976C10.1445 15.976 9.4707 16.2397 8.12305 16.767C6.77539 17.2944 6.10156 18.183 6.10156 19.433C6.10156 20.683 7.44922 21.8354 10.1445 22.8901C12.8398 23.9448 16.1797 24.4721 20.1641 24.4721C22.1172 24.4721 23.9922 24.3159 25.7891 24.0034C27.5859 23.6909 29.0703 23.3002 30.2422 22.8315C31.4141 22.3627 32.3516 21.8354 33.0547 21.2495C33.7578 20.6635 34.1094 20.058 34.1094 19.433C34.1094 18.183 32.7617 17.0307 30.0664 15.976C27.3711 14.9213 24.0508 14.394 20.1055 14.394C16.1602 14.394 12.8398 14.9213 10.1445 15.976ZM21.1016 40.4096C24.8516 40.4877 28.5234 40.058 32.1172 39.1205C32.1172 39.0424 32.0977 39.0034 32.0586 39.0034C32.0195 39.0034 32 39.0034 32 39.0034C32 39.0034 31.9609 38.9252 31.8828 38.769C31.7266 38.6127 31.6094 38.4174 31.5312 38.183C31.4531 38.1049 31.4141 38.0268 31.4141 37.9487C31.2578 37.7924 31.1406 37.5971 31.0625 37.3627C31.0625 37.3627 31.0234 37.3237 30.9453 37.2455C30.7891 36.933 30.6719 36.6596 30.5938 36.4252C30.5938 36.3471 30.5938 36.2885 30.5938 36.2495C30.5938 36.2104 30.5938 36.1909 30.5938 36.1909C30.5156 35.9565 30.4375 35.7221 30.3594 35.4877C30.3594 35.4096 30.3594 35.3315 30.3594 35.2534C30.2812 35.019 30.2422 34.7846 30.2422 34.5502C30.1641 34.4721 30.125 34.394 30.125 34.3159C30.125 34.0034 30.125 33.6909 30.125 33.3784C30.125 33.0659 30.1641 32.7534 30.2422 32.4409V32.3237L30.3594 32.2065C30.3594 31.9721 30.3984 31.7768 30.4766 31.6205C30.4766 31.5424 30.5156 31.4252 30.5938 31.269C30.75 31.1127 30.8672 30.9565 30.9453 30.8002C30.9453 30.7221 31.0039 30.6049 31.1211 30.4487C31.2383 30.2924 31.375 30.1362 31.5312 29.9799C31.6094 29.9018 31.6875 29.8237 31.7656 29.7455C31.9219 29.6674 32.0391 29.5502 32.1172 29.394C32.2734 29.3159 32.3906 29.2377 32.4688 29.1596C32.625 29.0815 32.7812 29.0034 32.9375 28.9252C33.0938 28.8471 33.2109 28.808 33.2891 28.808C33.4453 28.7299 33.6406 28.6518 33.875 28.5737C34.0312 28.5737 34.1484 28.5737 34.2266 28.5737V28.4565H34.3438C30.0469 27.0502 25.6328 26.3862 21.1016 26.4643C15.7891 26.4643 11.2969 27.187 7.625 28.6323C3.95312 30.0776 2.11719 31.6791 2.11719 33.437C2.11719 35.1948 3.95312 36.7963 7.625 38.2416C11.2969 39.687 15.7891 40.4096 21.1016 40.4096ZM51.1016 40.4096C53.0547 40.4096 54.7148 39.726 56.082 38.3588C57.4492 36.9916 58.1328 35.3315 58.1328 33.3784C58.1328 32.5971 57.8398 31.9135 57.2539 31.3276C56.668 30.7416 55.9453 30.4487 55.0859 30.4487H35.1641C34.3047 30.4487 33.582 30.7416 32.9961 31.3276C32.4102 31.9135 32.1172 32.5971 32.1172 33.3784C32.1172 35.3315 32.8008 36.9916 34.168 38.3588C35.5352 39.726 37.1953 40.4096 39.1484 40.4096H51.1016Z" fill="black"/>
</svg>
